<svg width="23" height="56" xmlns="http://www.w3.org/2000/svg" xml:space="preserve" enable-background="new 0 0 100 100" version="1.1">

 <g>
  <title>Layer 1</title>
  <path stroke="null" stroke-width="0.2" id="svg_1" d="m12.25073,1.46226l0,52.985c0,0.36208 -0.37237,0.72417 -0.93092,0.72417c-0.55855,0 -0.93092,-0.24139 -0.93092,-0.72417l0,-52.985c0,-0.36208 0.37237,-0.72417 0.93092,-0.72417c0.55855,0 0.93092,0.36208 0.93092,0.72417z"/>
  <path stroke="null" id="svg_2" d="m12.19048,1.2381c0,0.3 -0.1,0.5 -0.3,0.7l-10,10c-0.4,0.4 -1,0.4 -1.4,0c-0.4,-0.4 -0.4,-1 0,-1.4l10,-10c0.4,-0.4 1,-0.4 1.4,0c0.2,0.2 0.3,0.4 0.3,0.7z"/>
  <path id="svg_3" d="m22.4881,11.2381c0,0.3 -0.1,0.5 -0.3,0.7c-0.4,0.4 -1,0.4 -1.4,0l-10,-10c-0.4,-0.4 -0.4,-1 0,-1.4c0.4,-0.4 1,-0.4 1.4,0l10,10c0.2,0.2 0.3,0.5 0.3,0.7z"/>
 </g>
</svg>